<?xml version="1.0" encoding="UTF-8" standalone="no"?>
<svg
   xmlns:dc="http://purl.org/dc/elements/1.1/"
   xmlns:cc="http://creativecommons.org/ns#"
   xmlns:rdf="http://www.w3.org/1999/02/22-rdf-syntax-ns#"
   xmlns:svg="http://www.w3.org/2000/svg"
   xmlns="http://www.w3.org/2000/svg"
   xmlns:xlink="http://www.w3.org/1999/xlink"
   xmlns:sodipodi="http://sodipodi.sourceforge.net/DTD/sodipodi-0.dtd"
   xmlns:inkscape="http://www.inkscape.org/namespaces/inkscape"
   width="164.61751mm"
   height="117.50831mm"
   viewBox="0 0 164.61751 117.50831"
   version="1.1"
   id="svg8"
   sodipodi:docname="InstallerBackground.svg"
   inkscape:export-filename="G:\OneDrive - University of Bristol\Projects\TreeViewer\Icons\Program\InstallerBackground-30.png"
   inkscape:export-xdpi="158.00926"
   inkscape:export-ydpi="158.00926"
   inkscape:version="1.0 (4035a4fb49, 2020-05-01)">
  <defs
     id="defs2">
    <linearGradient
       inkscape:collect="always"
       id="linearGradient1182">
      <stop
         style="stop-color:#ffffff;stop-opacity:1"
         offset="0"
         id="stop1178" />
      <stop
         style="stop-color:#000000;stop-opacity:1"
         offset="1"
         id="stop1180" />
    </linearGradient>
    <pattern
       y="0"
       x="0"
       height="6"
       width="6"
       patternUnits="userSpaceOnUse"
       id="EMFhbasepattern" />
    <linearGradient
       inkscape:collect="always"
       id="linearGradient897">
      <stop
         style="stop-color:#000000;stop-opacity:0.2"
         offset="0"
         id="stop893" />
      <stop
         style="stop-color:#000000;stop-opacity:0"
         offset="1"
         id="stop895" />
    </linearGradient>
    <radialGradient
       inkscape:collect="always"
       xlink:href="#linearGradient897"
       id="radialGradient901"
       cx="69.935036"
       cy="30.408653"
       fx="69.935036"
       fy="30.408653"
       r="17.958595"
       gradientTransform="matrix(1.6208894,1.6208896,-0.69733304,0.69733304,-25.481736,-113.24858)"
       gradientUnits="userSpaceOnUse" />
    <mask
       maskUnits="userSpaceOnUse"
       id="mask1132">
      <path
         style="fill:#ffffff;fill-opacity:1;stroke:none;stroke-width:0.1;stroke-linecap:round;stroke-miterlimit:4;stroke-dasharray:none;stroke-opacity:1"
         d="m 73.270097,119.62215 v 2.64584 2.64583 c -16.182758,-3.67715 -32.483293,-5.49618 -45.583264,-14.92785 -1.305999,-0.91076 -0.25065,-6.101 -0.25065,-6.101 0,0 0.865807,-1.85325 1.904296,-3.915362 C 36.97927,86.786003 47.593448,75.736106 57.589917,67.616544 70.336997,57.262816 85.490095,52.061938 95.561243,52.061938 c 0.0716,0 0.145965,0.0031 0.218074,0.0036 V 35.917187 L 59.861979,0 H 7.9375 C 3.540125,0 0,3.540125 0,7.9375 v 119.59166 c 0,4.39738 3.540125,7.9375 7.9375,7.9375 h 79.904167 c 4.397375,0 7.9375,-3.54012 7.9375,-7.9375 v -1.25522 c -0.07252,5.3e-4 -0.14504,0.001 -0.217559,0.001 -7.922483,2.3e-4 -15.181287,-2.9224 -20.812702,-7.77667"
         id="path1134"
         sodipodi:nodetypes="ccccccsscccssssssccc" />
    </mask>
    <mask
       maskUnits="userSpaceOnUse"
       id="mask1136">
      <path
         sodipodi:nodetypes="ccccccsscccssssssccc"
         id="path1138"
         d="m 73.270097,119.62215 v 2.64584 2.64583 c -16.182758,-3.67715 -32.483293,-5.49618 -45.583264,-14.92785 -1.305999,-0.91076 -0.25065,-6.101 -0.25065,-6.101 0,0 0.865807,-1.85325 1.904296,-3.915362 C 36.97927,86.786003 47.593448,75.736106 57.589917,67.616544 70.336997,57.262816 85.490095,52.061938 95.561243,52.061938 c 0.0716,0 0.145965,0.0031 0.218074,0.0036 V 35.917187 L 59.861979,0 H 7.9375 C 3.540125,0 0,3.540125 0,7.9375 v 119.59166 c 0,4.39738 3.540125,7.9375 7.9375,7.9375 h 79.904167 c 4.397375,0 7.9375,-3.54012 7.9375,-7.9375 v -1.25522 c -0.07252,5.3e-4 -0.14504,0.001 -0.217559,0.001 -7.922483,2.3e-4 -15.181287,-2.9224 -20.812702,-7.77667"
         style="fill:#ffffff;fill-opacity:1;stroke:none;stroke-width:0.1;stroke-linecap:round;stroke-miterlimit:4;stroke-dasharray:none;stroke-opacity:1" />
    </mask>
    <mask
       id="mask1888"
       maskUnits="userSpaceOnUse">
      <path
         sodipodi:nodetypes="csssssscc"
         d="m 95.792109,32.678662 v 97.048418 c 0,4.65833 -3.750204,8.40852 -8.408529,8.40852 H 2.7377323 c -4.6583242,0 -8.4085279,-3.75019 -8.4085279,-8.40852 V 3.0386049 c 0,-4.6583244 3.7502037,-8.4085277 8.4085279,-8.4085277 H 57.743519 Z"
         style="fill:#ffffff;fill-opacity:1;stroke:none;stroke-width:1.02154;stroke-linecap:round;stroke-opacity:1"
         id="path1890" />
    </mask>
    <mask
       maskUnits="userSpaceOnUse"
       id="mask1132-3">
      <path
         style="fill:#ffffff;fill-opacity:1;stroke:none;stroke-width:0.1;stroke-linecap:round;stroke-miterlimit:4;stroke-dasharray:none;stroke-opacity:1"
         d="m 73.270097,119.62215 v 2.64584 2.64583 c -16.182758,-3.67715 -32.483293,-5.49618 -45.583264,-14.92785 -1.305999,-0.91076 -0.25065,-6.101 -0.25065,-6.101 0,0 0.865807,-1.85325 1.904296,-3.915362 C 36.97927,86.786003 47.593448,75.736106 57.589917,67.616544 70.336997,57.262816 85.490095,52.061938 95.561243,52.061938 c 0.0716,0 0.145965,0.0031 0.218074,0.0036 V 35.917187 L 59.861979,0 H 7.9375 C 3.540125,0 0,3.540125 0,7.9375 v 119.59166 c 0,4.39738 3.540125,7.9375 7.9375,7.9375 h 79.904167 c 4.397375,0 7.9375,-3.54012 7.9375,-7.9375 v -1.25522 c -0.07252,5.3e-4 -0.14504,0.001 -0.217559,0.001 -7.922483,2.3e-4 -15.181287,-2.9224 -20.812702,-7.77667"
         id="path1134-9"
         sodipodi:nodetypes="ccccccsscccssssssccc" />
    </mask>
    <mask
       maskUnits="userSpaceOnUse"
       id="mask1136-2">
      <path
         sodipodi:nodetypes="ccccccsscccssssssccc"
         id="path1138-7"
         d="m 73.270097,119.62215 v 2.64584 2.64583 c -16.182758,-3.67715 -32.483293,-5.49618 -45.583264,-14.92785 -1.305999,-0.91076 -0.25065,-6.101 -0.25065,-6.101 0,0 0.865807,-1.85325 1.904296,-3.915362 C 36.97927,86.786003 47.593448,75.736106 57.589917,67.616544 70.336997,57.262816 85.490095,52.061938 95.561243,52.061938 c 0.0716,0 0.145965,0.0031 0.218074,0.0036 V 35.917187 L 59.861979,0 H 7.9375 C 3.540125,0 0,3.540125 0,7.9375 v 119.59166 c 0,4.39738 3.540125,7.9375 7.9375,7.9375 h 79.904167 c 4.397375,0 7.9375,-3.54012 7.9375,-7.9375 v -1.25522 c -0.07252,5.3e-4 -0.14504,0.001 -0.217559,0.001 -7.922483,2.3e-4 -15.181287,-2.9224 -20.812702,-7.77667"
         style="fill:#ffffff;fill-opacity:1;stroke:none;stroke-width:0.1;stroke-linecap:round;stroke-miterlimit:4;stroke-dasharray:none;stroke-opacity:1" />
    </mask>
    <clipPath
       id="clipPath1273"
       clipPathUnits="userSpaceOnUse">
      <path
         id="path1275"
         style="fill:#ffffff;fill-opacity:1;stroke:none;stroke-width:0.964312;stroke-linecap:round;stroke-opacity:1"
         d="m 362.00001,135.75 v 346.24998 c 0,16.62002 -13.38,30 -30,30 H 30 C 13.38,511.99998 -5.9127449e-7,498.62 -5.9127449e-7,481.99998 V 30.000017 C -5.9127449e-7,13.380017 13.38,1.7730124e-5 30,1.7730124e-5 h 196.25 z"
         sodipodi:nodetypes="csssssscc" />
    </clipPath>
    <mask
       id="mask1303"
       maskUnits="userSpaceOnUse">
      <path
         id="path1305"
         style="fill:#ffffff;fill-opacity:1;stroke:none;stroke-width:0.964312;stroke-linecap:round;stroke-opacity:1"
         d="m 95.779167,35.917188 v 91.611972 c 0,4.39738 -3.540124,7.9375 -7.9375,7.9375 H 7.9374998 c -4.3973749,0 -7.93749995644137,-3.54012 -7.93749995644137,-7.9375 V 7.9375045 C -1.5644137e-7,3.5401295 3.5401249,4.6910952e-6 7.9374998,4.6910952e-6 H 59.861979 Z"
         sodipodi:nodetypes="csssssscc" />
    </mask>
    <clipPath
       clipPathUnits="userSpaceOnUse"
       id="clipPath982">
      <path
         id="path984"
         style="fill:#ffffff;fill-opacity:1;stroke:none;stroke-width:1.02154;stroke-linecap:round;stroke-opacity:1"
         d="m 95.792107,32.678655 v 97.048415 c 0,4.65833 -3.750203,8.40853 -8.408525,8.40853 H 2.737732 c -4.6583249,0 -8.4085281,-3.7502 -8.4085281,-8.40853 V 3.0385998 c 0,-4.6583243 3.7502032,-8.4085278 8.4085281,-8.4085278 h 55.005786 z"
         sodipodi:nodetypes="csssssscc" />
    </clipPath>
    <linearGradient
       id="linearGradient1191"
       inkscape:collect="always">
      <stop
         id="stop1213"
         offset="0"
         style="stop-color:#000000;stop-opacity:0.5" />
      <stop
         id="stop1215"
         offset="1"
         style="stop-color:#000000;stop-opacity:0;" />
    </linearGradient>
    <linearGradient
       inkscape:collect="always"
       id="linearGradient1191-1">
      <stop
         style="stop-color:#00639b;stop-opacity:0.2"
         offset="0"
         id="stop1187" />
      <stop
         style="stop-color:#00639b;stop-opacity:0"
         offset="1"
         id="stop1189" />
    </linearGradient>
    <linearGradient
       id="linearGradient1082"
       inkscape:collect="always">
      <stop
         id="stop1078"
         offset="0"
         style="stop-color:#78bdfb;stop-opacity:0.5" />
      <stop
         id="stop1080"
         offset="1"
         style="stop-color:#7ac0ff;stop-opacity:0" />
    </linearGradient>
    <linearGradient
       inkscape:collect="always"
       id="linearGradient884">
      <stop
         style="stop-color:#79bffe;stop-opacity:0.2"
         offset="0"
         id="stop880" />
      <stop
         style="stop-color:#77bcf9;stop-opacity:0"
         offset="1"
         id="stop882" />
    </linearGradient>
    <linearGradient
       y2="52.047314"
       x2="39.460712"
       y1="1.9654751"
       x1="2.8348188"
       gradientUnits="userSpaceOnUse"
       id="linearGradient878"
       xlink:href="#linearGradient884"
       inkscape:collect="always" />
    <radialGradient
       gradientUnits="userSpaceOnUse"
       gradientTransform="matrix(1.6208894,1.6208896,-0.69733304,0.69733304,-25.481736,-113.24858)"
       r="17.958595"
       fy="30.408653"
       fx="69.935036"
       cy="30.408653"
       cx="69.935036"
       id="radialGradient901-9"
       xlink:href="#linearGradient897"
       inkscape:collect="always" />
    <linearGradient
       gradientUnits="userSpaceOnUse"
       y2="69.59893"
       x2="87.128555"
       y1="130.93242"
       x1="104.80307"
       id="linearGradient1084"
       xlink:href="#linearGradient1082"
       inkscape:collect="always" />
    <mask
       id="mask1132-6"
       maskUnits="userSpaceOnUse">
      <path
         sodipodi:nodetypes="ccccccsscccssssssccc"
         id="path1134-8"
         d="m 73.270097,119.62215 v 2.64584 2.64583 c -16.182758,-3.67715 -32.483293,-5.49618 -45.583264,-14.92785 -1.305999,-0.91076 -0.25065,-6.101 -0.25065,-6.101 0,0 0.865807,-1.85325 1.904296,-3.915362 C 36.97927,86.786003 47.593448,75.736106 57.589917,67.616544 70.336997,57.262816 85.490095,52.061938 95.561243,52.061938 c 0.0716,0 0.145965,0.0031 0.218074,0.0036 V 35.917187 L 59.861979,0 H 7.9375 C 3.540125,0 0,3.540125 0,7.9375 v 119.59166 c 0,4.39738 3.540125,7.9375 7.9375,7.9375 h 79.904167 c 4.397375,0 7.9375,-3.54012 7.9375,-7.9375 v -1.25522 c -0.07252,5.3e-4 -0.14504,0.001 -0.217559,0.001 -7.922483,2.3e-4 -15.181287,-2.9224 -20.812702,-7.77667"
         style="fill:#ffffff;fill-opacity:1;stroke:none;stroke-width:0.1;stroke-linecap:round;stroke-miterlimit:4;stroke-dasharray:none;stroke-opacity:1" />
    </mask>
    <mask
       id="mask1136-1"
       maskUnits="userSpaceOnUse">
      <path
         style="fill:#ffffff;fill-opacity:1;stroke:none;stroke-width:0.1;stroke-linecap:round;stroke-miterlimit:4;stroke-dasharray:none;stroke-opacity:1"
         d="m 73.270097,119.62215 v 2.64584 2.64583 c -16.182758,-3.67715 -32.483293,-5.49618 -45.583264,-14.92785 -1.305999,-0.91076 -0.25065,-6.101 -0.25065,-6.101 0,0 0.865807,-1.85325 1.904296,-3.915362 C 36.97927,86.786003 47.593448,75.736106 57.589917,67.616544 70.336997,57.262816 85.490095,52.061938 95.561243,52.061938 c 0.0716,0 0.145965,0.0031 0.218074,0.0036 V 35.917187 L 59.861979,0 H 7.9375 C 3.540125,0 0,3.540125 0,7.9375 v 119.59166 c 0,4.39738 3.540125,7.9375 7.9375,7.9375 h 79.904167 c 4.397375,0 7.9375,-3.54012 7.9375,-7.9375 v -1.25522 c -0.07252,5.3e-4 -0.14504,0.001 -0.217559,0.001 -7.922483,2.3e-4 -15.181287,-2.9224 -20.812702,-7.77667"
         id="path1138-5"
         sodipodi:nodetypes="ccccccsscccssssssccc" />
    </mask>
    <radialGradient
       inkscape:collect="always"
       xlink:href="#linearGradient1191-1"
       id="radialGradient1195"
       cx="1562.0206"
       cy="-615.00433"
       fx="1562.0206"
       fy="-615.00433"
       r="531.41406"
       gradientTransform="matrix(-0.22491361,-0.83938906,2.4119017,-0.64626712,3627.7684,1405.1155)"
       gradientUnits="userSpaceOnUse" />
    <radialGradient
       inkscape:collect="always"
       xlink:href="#linearGradient1191"
       id="radialGradient1218"
       gradientUnits="userSpaceOnUse"
       gradientTransform="matrix(-0.17376316,-0.93346826,2.8350721,-0.52774281,3808.122,1624.9622)"
       cx="1562.0206"
       cy="-615.00433"
       fx="1562.0206"
       fy="-615.00433"
       r="531.41406" />
    <clipPath
       clipPathUnits="userSpaceOnUse"
       id="clipPath1273-2">
      <path
         sodipodi:nodetypes="csssssscc"
         d="m 362.00001,135.75 v 346.24998 c 0,16.62002 -13.38,30 -30,30 H 30 C 13.38,511.99998 -5.9127449e-7,498.62 -5.9127449e-7,481.99998 V 30.000017 C -5.9127449e-7,13.380017 13.38,1.7730124e-5 30,1.7730124e-5 h 196.25 z"
         style="fill:#ffffff;fill-opacity:1;stroke:none;stroke-width:0.964312;stroke-linecap:round;stroke-opacity:1"
         id="path1275-2" />
    </clipPath>
    <mask
       maskUnits="userSpaceOnUse"
       id="mask1303-1">
      <path
         sodipodi:nodetypes="csssssscc"
         d="m 95.779167,35.917188 v 91.611972 c 0,4.39738 -3.540124,7.9375 -7.9375,7.9375 H 7.9374998 c -4.3973749,0 -7.93749995644137,-3.54012 -7.93749995644137,-7.9375 V 7.9375045 C -1.5644137e-7,3.5401295 3.5401249,4.6910952e-6 7.9374998,4.6910952e-6 H 59.861979 Z"
         style="fill:#ffffff;fill-opacity:1;stroke:none;stroke-width:0.964312;stroke-linecap:round;stroke-opacity:1"
         id="path1305-3" />
    </mask>
    <mask
       maskUnits="userSpaceOnUse"
       id="mask1374">
      <path
         d="M 192.06857,7.5597467 V 64.384701 c 9.52671,1.874207 21.12797,6.931972 31.25391,15.156698 10.27368,8.344723 21.18274,19.700965 29.03337,33.250171 -13.46326,9.69322 -28.51612,16.41861 -45.14764,20.19773 9.3355,-4.14961 17.69865,-9.97761 24.71219,-18.13791 C 224.18074,95.733992 207.72551,79.847374 192.06857,75.772118 V 86.76318 a 15.450965,15.450965 0 0 1 7.68067,13.35474 15.450965,15.450965 0 0 1 -7.68067,13.35526 v 11.60084 a 25.477655,26.204447 0 0 0 17.70745,-24.9561 25.477655,26.204447 0 0 0 -1.54306,-8.981365 c -0.001,-2.65e-4 -0.002,-0.0013 -0.002,-0.0016 h 0.002 a 25.477655,26.204447 0 0 1 5.3e-4,0.0011 c 3.27886,2.444895 6.43662,5.311092 9.38082,8.504906 a 33.319074,34.269556 0 0 1 0.004,0.476979 33.319074,34.269556 0 0 1 -25.54935,33.32508 V 164.0417 H 484.24403 V 7.5597467 Z"
         style="font-variation-settings:normal;opacity:1;vector-effect:none;fill:#ffffff;fill-opacity:1;stroke:none;stroke-width:2.80395;stroke-linecap:round;stroke-linejoin:round;stroke-miterlimit:4;stroke-dasharray:none;stroke-dashoffset:0;stroke-opacity:0.2;stop-color:#000000;stop-opacity:1"
         id="path1376" />
    </mask>
    <linearGradient
       inkscape:collect="always"
       xlink:href="#linearGradient1182"
       id="linearGradient1184"
       x1="68.407898"
       y1="219.39508"
       x2="78.329781"
       y2="219.39508"
       gradientUnits="userSpaceOnUse" />
    <linearGradient
       inkscape:collect="always"
       xlink:href="#linearGradient1182"
       id="linearGradient1198"
       gradientUnits="userSpaceOnUse"
       x1="65.573074"
       y1="219.39508"
       x2="78.329781"
       y2="219.39508" />
    <filter
       height="1.1532214"
       y="-0.076610714"
       width="1.1469111"
       x="-0.073455624"
       id="filter1740"
       style="color-interpolation-filters:sRGB"
       inkscape:collect="always">
      <feGaussianBlur
         id="feGaussianBlur1742"
         stdDeviation="1.6379572"
         inkscape:collect="always" />
    </filter>
  </defs>
  <sodipodi:namedview
     id="base"
     pagecolor="#ffffff"
     bordercolor="#666666"
     borderopacity="1.0"
     inkscape:pageopacity="0.0"
     inkscape:pageshadow="2"
     inkscape:zoom="0.98994949"
     inkscape:cx="407.24571"
     inkscape:cy="63.168627"
     inkscape:document-units="mm"
     inkscape:current-layer="layer1"
     inkscape:document-rotation="0"
     showgrid="false"
     inkscape:window-width="3440"
     inkscape:window-height="1377"
     inkscape:window-x="2552"
     inkscape:window-y="-8"
     inkscape:window-maximized="1" />
  <metadata
     id="metadata5">
    <rdf:RDF>
      <cc:Work
         rdf:about="">
        <dc:format>image/svg+xml</dc:format>
        <dc:type
           rdf:resource="http://purl.org/dc/dcmitype/StillImage" />
      </cc:Work>
    </rdf:RDF>
  </metadata>
  <g
     inkscape:label="Livello 1"
     inkscape:groupmode="layer"
     id="layer1"
     transform="translate(-25.035133,-128.30281)">
    <g
       style="opacity:0.3"
       transform="matrix(1.7678235,0,0,1.7678235,-214.47098,43.366308)"
       id="g1028">
      <g
         transform="translate(136.6543,24.682319)"
         id="g1689"
         style="opacity:0.2;filter:url(#filter1740)">
        <path
           id="path1737"
           style="opacity:1;fill:#000000;fill-opacity:1;stroke:#000000;stroke-width:3.768;stroke-linejoin:round;stroke-miterlimit:4;stroke-dasharray:none;stroke-opacity:1;paint-order:fill markers stroke"
           d="m 203.7207,31.03125 a 25.374898,25.374898 0 0 0 -22.17773,13.121094 h -75.82813 l -15.884762,9.171875 v 0.267578 5.333984 l 16.855472,9.732422 h 74.85742 a 25.374898,25.374898 0 0 0 22.21875,13.123047 25.374898,25.374898 0 0 0 25.375,-25.375 25.374898,25.374898 0 0 0 -25.375,-25.375 25.374898,25.374898 0 0 0 -0.041,0 z M 89.789062,66.828125 A 25.374898,25.374898 0 0 0 67.375,80.384766 l -15.130859,8.736328 v 1.814453 3.789062 l 14.734375,8.505861 a 25.374898,25.374898 0 0 0 22.851562,14.34765 25.374898,25.374898 0 0 0 0.04102,0 25.374898,25.374898 0 0 0 1.271484,-0.0352 25.374898,25.374898 0 0 0 24.062498,-25.339845 25.374898,25.374898 0 0 0 0,-0.04102 25.374898,25.374898 0 0 0 -0.002,-0.318359 25.374898,25.374898 0 0 0 -0.002,-0.105469 25.374898,25.374898 0 0 0 -0.002,-0.03516 25.374898,25.374898 0 0 0 -0.01,-0.388672 25.374898,25.374898 0 0 0 -0.002,-0.03516 25.374898,25.374898 0 0 0 -0.0156,-0.388672 25.374898,25.374898 0 0 0 -0.002,-0.0332 25.374898,25.374898 0 0 1 0,-0.002 25.374898,25.374898 0 0 0 -0.002,-0.03516 25.374898,25.374898 0 0 0 -0.0586,-0.810546 25.374898,25.374898 0 0 0 -0.0352,-0.384766 25.374898,25.374898 0 0 0 -0.004,-0.03711 25.374898,25.374898 0 0 0 -0.043,-0.384766 25.374898,25.374898 0 0 0 -0.004,-0.03516 25.374898,25.374898 0 0 0 -0.17774,-1.222657 25.374898,25.374898 0 0 0 -0.004,-0.02344 25.374898,25.374898 0 0 0 -0.002,-0.01172 25.374898,25.374898 0 0 0 -0.0156,-0.08789 25.374898,25.374898 0 0 0 -0.0605,-0.328125 25.374898,25.374898 0 0 0 -0.0742,-0.38086 25.374898,25.374898 0 0 0 -0.008,-0.03516 25.374898,25.374898 0 0 0 -0.0801,-0.378906 25.374898,25.374898 0 0 0 -0.008,-0.03516 25.374898,25.374898 0 0 0 -0.0879,-0.378906 25.374898,25.374898 0 0 0 -0.006,-0.02148 25.374898,25.374898 0 0 0 -0.002,-0.01172 25.374898,25.374898 0 0 0 -0.0937,-0.376953 25.374898,25.374898 0 0 0 -0.01,-0.03516 25.374898,25.374898 0 0 0 -0.0996,-0.375 25.374898,25.374898 0 0 0 -0.01,-0.0332 25.374898,25.374898 0 0 0 -0.0195,-0.06836 25.374898,25.374898 0 0 0 -0.0195,-0.06836 25.374898,25.374898 0 0 0 -0.0781,-0.271484 25.374898,25.374898 0 0 0 -0.0352,-0.113282 25.374898,25.374898 0 0 0 -0.0879,-0.291015 25.374898,25.374898 0 0 0 -0.0195,-0.06445 25.374898,25.374898 0 0 0 -0.0254,-0.08008 25.374898,25.374898 0 0 0 -0.20898,-0.626953 25.374898,25.374898 0 0 0 -0.0117,-0.0332 25.374898,25.374898 0 0 0 -0.0117,-0.0332 25.374898,25.374898 0 0 0 -23.937498,-16.953125 25.374898,25.374898 0 0 0 -0.04102,0 z M 203.7207,102.625 a 25.374898,25.374898 0 0 0 -22.17968,13.12305 h -75.82618 l -15.884762,9.16992 v 0.26758 5.33593 l 16.855472,9.73047 h 74.85547 a 25.374898,25.374898 0 0 0 22.2207,13.12305 25.374898,25.374898 0 0 0 25.375,-25.375 25.374898,25.374898 0 0 0 -25.375,-25.375 25.374898,25.374898 0 0 0 -0.041,0 z M 52.244141,120.24219 a 25.374898,25.374898 0 0 0 -25.375,25.375 25.374898,25.374898 0 0 0 25.375,25.375 25.374898,25.374898 0 0 0 0.04102,0 25.374898,25.374898 0 0 0 0.423828,-0.004 25.374898,25.374898 0 0 0 24.910157,-25.37109 25.374898,25.374898 0 0 0 0,-0.041 25.374898,25.374898 0 0 0 -0.002,-0.3164 25.374898,25.374898 0 0 0 -0.002,-0.10743 25.374898,25.374898 0 0 0 0,-0.0273 25.374898,25.374898 0 0 0 -0.01172,-0.39453 25.374898,25.374898 0 0 0 -0.0078,-0.18555 25.374898,25.374898 0 0 0 -0.01172,-0.23828 25.374898,25.374898 0 0 0 -0.002,-0.0469 25.374898,25.374898 0 0 0 -0.04687,-0.69532 25.374898,25.374898 0 0 0 -0.0625,-0.66797 25.374898,25.374898 0 0 0 -0.0039,-0.041 25.374898,25.374898 0 0 0 -0.01172,-0.10352 25.374898,25.374898 0 0 0 -0.03516,-0.28515 25.374898,25.374898 0 0 0 -0.0039,-0.0312 25.374898,25.374898 0 0 0 -0.03125,-0.23633 25.374898,25.374898 0 0 0 -0.01172,-0.084 25.374898,25.374898 0 0 0 -0.01367,-0.0996 25.374898,25.374898 0 0 0 -0.03516,-0.23632 25.374898,25.374898 0 0 0 -0.0039,-0.0195 25.374898,25.374898 0 0 0 -0.0625,-0.39844 25.374898,25.374898 0 0 0 -0.01953,-0.10938 25.374898,25.374898 0 0 0 -0.01172,-0.0723 25.374898,25.374898 0 0 0 -0.01758,-0.0977 25.374898,25.374898 0 0 0 -0.06055,-0.31836 25.374898,25.374898 0 0 0 -0.04687,-0.23633 25.374898,25.374898 0 0 0 -0.02539,-0.11523 25.374898,25.374898 0 0 0 -0.01172,-0.0645 25.374898,25.374898 0 0 0 -0.05078,-0.23438 25.374898,25.374898 0 0 0 -0.04102,-0.17969 25.374898,25.374898 0 0 0 -0.01758,-0.0742 25.374898,25.374898 0 0 0 -0.07422,-0.3086 25.374898,25.374898 0 0 0 -0.0078,-0.0293 25.374898,25.374898 0 0 0 -0.140625,-0.54687 25.374898,25.374898 0 0 0 -0.07617,-0.27149 25.374898,25.374898 0 0 0 -0.06641,-0.23046 25.374898,25.374898 0 0 0 -0.04102,-0.13477 25.374898,25.374898 0 0 0 -0.01172,-0.041 25.374898,25.374898 0 0 0 -0.07031,-0.22852 25.374898,25.374898 0 0 0 -0.01172,-0.0352 25.374898,25.374898 0 0 0 -0.117187,-0.36914 25.374898,25.374898 0 0 0 -0.197266,-0.57422 25.374898,25.374898 0 0 0 -0.230469,-0.62109 25.374898,25.374898 0 0 0 -0.002,-0.004 25.374898,25.374898 0 0 0 -0.154297,-0.39062 25.374898,25.374898 0 0 0 -0.06445,-0.15625 25.374898,25.374898 0 0 0 -0.0059,-0.0137 25.374898,25.374898 0 0 0 -0.0918,-0.22071 25.374898,25.374898 0 0 0 -0.02344,-0.0527 25.374898,25.374898 0 0 0 -0.503906,-1.10352 25.374898,25.374898 0 0 0 -0.002,-0.004 25.374898,25.374898 0 0 0 -0.185547,-0.375 25.374898,25.374898 0 0 0 -0.08398,-0.16406 25.374898,25.374898 0 0 0 -0.111328,-0.2129 25.374898,25.374898 0 0 0 -0.08594,-0.1621 25.374898,25.374898 0 0 0 -0.115234,-0.21094 25.374898,25.374898 0 0 0 -0.0098,-0.0176 25.374898,25.374898 0 0 0 -0.197265,-0.35156 25.374898,25.374898 0 0 0 -0.03516,-0.0606 25.374898,25.374898 0 0 0 -0.05664,-0.0996 25.374898,25.374898 0 0 0 -0.121094,-0.20703 25.374898,25.374898 0 0 0 -0.07422,-0.12305 25.374898,25.374898 0 0 0 -0.01953,-0.0332 25.374898,25.374898 0 0 0 -0.125,-0.20508 25.374898,25.374898 0 0 0 -0.06836,-0.10742 25.374898,25.374898 0 0 0 -0.0293,-0.0488 25.374898,25.374898 0 0 0 -0.128906,-0.20312 25.374898,25.374898 0 0 0 -0.09961,-0.1543 25.374898,25.374898 0 0 0 -0.130859,-0.19922 25.374898,25.374898 0 0 0 -0.0059,-0.008 25.374898,25.374898 0 0 0 -0.230468,-0.34375 25.374898,25.374898 0 0 0 -0.04102,-0.0566 25.374898,25.374898 0 0 0 -0.06445,-0.0957 25.374898,25.374898 0 0 0 -0.138672,-0.19531 25.374898,25.374898 0 0 0 -0.101562,-0.14062 25.374898,25.374898 0 0 0 -0.0059,-0.008 25.374898,25.374898 0 0 0 -0.140625,-0.19335 25.374898,25.374898 0 0 0 -0.06836,-0.0918 25.374898,25.374898 0 0 0 -0.04102,-0.0566 25.374898,25.374898 0 0 0 -0.05859,-0.0742 25.374898,25.374898 0 0 0 -0.199218,-0.26172 25.374898,25.374898 0 0 0 -0.148438,-0.18945 25.374898,25.374898 0 0 1 0,-0.002 25.374898,25.374898 0 0 0 -0.265625,-0.32812 25.374898,25.374898 0 0 0 -0.117187,-0.14258 25.374898,25.374898 0 0 0 -0.152344,-0.18164 25.374898,25.374898 0 0 0 -0.121094,-0.14063 25.374898,25.374898 0 0 0 -0.15625,-0.18164 25.374898,25.374898 0 0 0 -0.03906,-0.0449 25.374898,25.374898 0 0 0 -0.166016,-0.18554 25.374898,25.374898 0 0 0 -0.201172,-0.22071 25.374898,25.374898 0 0 0 -0.162109,-0.17578 25.374898,25.374898 0 0 0 -0.07813,-0.082 25.374898,25.374898 0 0 0 -0.04883,-0.0527 25.374898,25.374898 0 0 0 -0.166016,-0.17188 25.374898,25.374898 0 0 0 -0.05664,-0.0566 25.374898,25.374898 0 0 0 -0.07227,-0.0762 25.374898,25.374898 0 0 0 -0.167969,-0.16992 25.374898,25.374898 0 0 0 -0.130859,-0.12891 25.374898,25.374898 0 0 0 -0.171875,-0.16797 25.374898,25.374898 0 0 0 -0.132813,-0.12695 25.374898,25.374898 0 0 0 -0.173828,-0.16406 25.374898,25.374898 0 0 0 -0.08203,-0.0762 25.374898,25.374898 0 0 0 -0.05273,-0.0488 25.374898,25.374898 0 0 0 -0.177734,-0.16211 25.374898,25.374898 0 0 0 -0.136719,-0.12305 25.374898,25.374898 0 0 0 -0.179687,-0.1582 25.374898,25.374898 0 0 0 -0.03125,-0.0273 25.374898,25.374898 0 0 0 -0.289063,-0.24804 25.374898,25.374898 0 0 0 -0.142578,-0.11914 25.374898,25.374898 0 0 0 -0.02734,-0.0234 25.374898,25.374898 0 0 0 -0.632812,-0.50586 25.374898,25.374898 0 0 0 -0.189453,-0.14649 25.374898,25.374898 0 0 0 -0.09375,-0.0703 25.374898,25.374898 0 0 0 -0.05273,-0.041 25.374898,25.374898 0 0 0 -0.191406,-0.14258 25.374898,25.374898 0 0 0 -0.121094,-0.0859 25.374898,25.374898 0 0 0 -0.0293,-0.0234 25.374898,25.374898 0 0 0 -0.193359,-0.13867 25.374898,25.374898 0 0 0 -0.128906,-0.0898 25.374898,25.374898 0 0 0 -0.02148,-0.0156 25.374898,25.374898 0 0 0 -0.197265,-0.13672 25.374898,25.374898 0 0 0 -0.152344,-0.10351 25.374898,25.374898 0 0 0 -0.199219,-0.13282 25.374898,25.374898 0 0 0 -0.154296,-0.10156 25.374898,25.374898 0 0 0 -0.04688,-0.0293 25.374898,25.374898 0 0 0 -0.310546,-0.19922 25.374898,25.374898 0 0 0 -0.203125,-0.12696 25.374898,25.374898 0 0 0 -0.09961,-0.0605 25.374898,25.374898 0 0 0 -0.05664,-0.0352 25.374898,25.374898 0 0 0 -0.06445,-0.0371 25.374898,25.374898 0 0 0 -0.300782,-0.17773 25.374898,25.374898 0 0 0 -0.207031,-0.11914 25.374898,25.374898 0 0 0 -0.01563,-0.008 25.374898,25.374898 0 0 0 -0.353516,-0.19921 25.374898,25.374898 0 0 0 -0.162109,-0.0879 25.374898,25.374898 0 0 0 -0.03516,-0.0195 25.374898,25.374898 0 0 0 -0.71875,-0.36914 25.374898,25.374898 0 0 0 -0.214844,-0.10547 25.374898,25.374898 0 0 0 -0.08398,-0.041 25.374898,25.374898 0 0 0 -0.08203,-0.0391 25.374898,25.374898 0 0 0 -0.216797,-0.10157 25.374898,25.374898 0 0 0 -0.166015,-0.0762 25.374898,25.374898 0 0 0 -0.21875,-0.0977 25.374898,25.374898 0 0 0 -0.558594,-0.24024 25.374898,25.374898 0 0 0 -0.222656,-0.0918 25.374898,25.374898 0 0 0 -0.06445,-0.0254 25.374898,25.374898 0 0 0 -0.675782,-0.25976 25.374898,25.374898 0 0 1 -0.002,0 25.374898,25.374898 0 0 0 -0.04687,-0.0176 25.374898,25.374898 0 0 0 -0.128906,-0.0469 25.374898,25.374898 0 0 0 -0.04492,-0.0156 25.374898,25.374898 0 0 0 -0.226562,-0.0801 25.374898,25.374898 0 0 0 -0.03516,-0.0117 25.374898,25.374898 0 0 0 -0.945313,-0.30664 25.374898,25.374898 0 0 0 -7.333984,-1.08398 z M 203.7207,174.21875 A 25.374898,25.374898 0 0 0 181.54297,187.3418 H 68.126953 l -15.882812,9.16992 v 0.26953 2.82227 2.51171 l 16.855468,9.73243 H 181.54297 a 25.374898,25.374898 0 0 0 22.21875,13.12109 25.374898,25.374898 0 0 0 25.375,-25.375 25.374898,25.374898 0 0 0 -25.375,-25.375 25.374898,25.374898 0 0 0 -0.041,0 z"
           transform="matrix(0.26458333,0,0,0.26458333,-20.939006,24.318008)" />
        <g
           id="g1647"
           transform="translate(0,-0.11806814)" />
        <g
           id="g1653"
           transform="translate(0,-0.21756719)" />
        <g
           id="g1659"
           transform="translate(0,-0.10587524)" />
        <g
           id="g1665"
           transform="translate(0,-0.0782677)" />
        <g
           id="g1673"
           transform="translate(4.1569107,-0.07826759)" />
        <g
           transform="translate(-5.7877625,14.054536)"
           id="g1681"
           style="opacity:1;stroke-width:1;stroke-miterlimit:4;stroke-dasharray:none" />
      </g>
      <g
         id="g1579"
         transform="translate(136.6543,23.094819)">
        <path
           style="opacity:1;fill:none;fill-opacity:1;stroke:#000000;stroke-width:1.32292;stroke-linecap:round;stroke-linejoin:round;stroke-miterlimit:4;stroke-dasharray:none;stroke-opacity:1;paint-order:fill markers stroke"
           d="M -7.116129,48.562553 V 77.129671"
           id="path1514"
           sodipodi:nodetypes="cc" />
        <path
           sodipodi:nodetypes="cc"
           id="path1512"
           d="M 2.8285114,39.089093 V 58.195047"
           style="opacity:1;fill:none;fill-opacity:1;stroke:#000000;stroke-width:1.32292;stroke-linecap:round;stroke-linejoin:round;stroke-miterlimit:4;stroke-dasharray:none;stroke-opacity:1;paint-order:fill markers stroke" />
        <g
           transform="translate(0,-0.11806814)"
           id="g1499">
          <path
             style="opacity:1;fill:#00a2e8;fill-opacity:1;stroke:none;stroke-width:0.79375;stroke-linejoin:round;stroke-miterlimit:4;stroke-dasharray:none;stroke-opacity:1;paint-order:fill markers stroke"
             d="M 33.119526,36.118232 H 7.0311218 l -4.2025773,2.426359 v 1.482459 l 4.459583,2.574741 H 33.119526 Z"
             id="path1481"
             sodipodi:nodetypes="ccccccc" />
          <path
             sodipodi:nodetypes="cccccc"
             id="path1483"
             d="M 33.119526,36.118232 H 7.0311218 l -4.2025773,2.426359 v 0.07094 l 4.459583,-2.179479 z"
             style="opacity:1;fill:#ccf0ff;fill-opacity:1;stroke:none;stroke-width:0.79375;stroke-linejoin:round;stroke-miterlimit:4;stroke-dasharray:none;stroke-opacity:1;paint-order:fill markers stroke" />
        </g>
        <g
           transform="translate(0,-0.21756719)"
           id="g1495">
          <path
             sodipodi:nodetypes="ccccccc"
             id="path1485"
             d="M 33.119526,55.160461 H 7.0311218 L 2.8285445,57.58682 v 1.482459 l 4.459583,2.574741 H 33.119526 Z"
             style="opacity:1;fill:#00a2e8;fill-opacity:1;stroke:none;stroke-width:0.79375;stroke-linejoin:round;stroke-miterlimit:4;stroke-dasharray:none;stroke-opacity:1;paint-order:fill markers stroke" />
          <path
             style="opacity:1;fill:#ccf0ff;fill-opacity:1;stroke:none;stroke-width:0.79375;stroke-linejoin:round;stroke-miterlimit:4;stroke-dasharray:none;stroke-opacity:1;paint-order:fill markers stroke"
             d="M 33.119526,55.160461 H 7.0311218 L 2.8285445,57.58682 v 0.07094 l 4.459583,-1.611531 25.8313985,5.597791 z"
             id="path1487"
             sodipodi:nodetypes="ccccccc" />
        </g>
        <g
           transform="translate(0,-0.10587524)"
           id="g1526">
          <path
             style="opacity:1;fill:#00a2e8;fill-opacity:1;stroke:none;stroke-width:0.79375;stroke-linejoin:round;stroke-miterlimit:4;stroke-dasharray:none;stroke-opacity:1;paint-order:fill markers stroke"
             d="M 33.119526,73.991499 H -2.9135517 l -4.2025773,2.426359 v 1.482459 l 4.459583,2.574741 h 35.776072 z"
             id="path1489"
             sodipodi:nodetypes="ccccccc" />
          <path
             sodipodi:nodetypes="ccccccc"
             id="path1491"
             d="M 33.119526,73.991499 H -2.9135517 l -4.2025773,2.426359 v 0.07094 l 4.459583,-0.713838 35.776072,4.700098 z"
             style="opacity:1;fill:#ccf0ff;fill-opacity:1;stroke:none;stroke-width:0.79375;stroke-linejoin:round;stroke-miterlimit:4;stroke-dasharray:none;stroke-opacity:1;paint-order:fill markers stroke" />
        </g>
        <g
           transform="translate(0,-0.0782677)"
           id="g1552">
          <path
             sodipodi:nodetypes="ccccccc"
             id="path1528"
             d="m 2.8285114,45.549797 h -5.7420635 l -4.202577,2.426359 v 1.482459 l 4.459583,2.574741 h 5.4850575 z"
             style="opacity:1;fill:#00a2e8;fill-opacity:1;stroke:none;stroke-width:0.79375;stroke-linejoin:round;stroke-miterlimit:4;stroke-dasharray:none;stroke-opacity:1;paint-order:fill markers stroke" />
          <path
             style="opacity:1;fill:#ccf0ff;fill-opacity:1;stroke:none;stroke-width:0.79375;stroke-linejoin:round;stroke-miterlimit:4;stroke-dasharray:none;stroke-opacity:1;paint-order:fill markers stroke"
             d="m 2.8285114,45.549797 h -5.7420635 l -4.202577,2.426359 v 0.480133 l 4.459583,-1.526616 h 5.4850575 z"
             id="path1530"
             sodipodi:nodetypes="ccccccc" />
        </g>
        <g
           transform="translate(4.1569107,-0.07826759)"
           id="g1510">
          <circle
             style="opacity:1;fill:#02a0e3;fill-opacity:1;stroke:none;stroke-width:0.996949;stroke-linejoin:round;stroke-miterlimit:4;stroke-dasharray:none;stroke-opacity:1;paint-order:fill markers stroke"
             id="circle1503"
             cx="-1.3283665"
             cy="48.791576"
             r="6.7137752" />
          <circle
             id="circle1505"
             style="opacity:1;fill:#ccf0ff;fill-opacity:1;stroke:none;stroke-width:0.996949;stroke-linejoin:round;stroke-miterlimit:4;stroke-dasharray:none;stroke-opacity:1;paint-order:fill markers stroke"
             sodipodi:type="arc"
             sodipodi:cx="-1.3283665"
             sodipodi:cy="48.791576"
             sodipodi:rx="6.7137752"
             sodipodi:ry="6.7137752"
             sodipodi:start="5.9295933"
             sodipodi:end="6.2690436"
             sodipodi:arc-type="slice"
             d="m 4.9700607,46.466799 a 6.7137752,6.7137752 0 0 1 0.4146766,2.229836 l -6.7131038,0.09494 z" />
          <circle
             r="6.7137752"
             cy="48.791576"
             cx="-1.3283665"
             id="circle1501"
             style="opacity:1;fill:none;fill-opacity:1;stroke:#000000;stroke-width:0.996949;stroke-linejoin:round;stroke-miterlimit:4;stroke-dasharray:none;stroke-opacity:1;paint-order:fill markers stroke" />
        </g>
        <g
           style="opacity:1;stroke-width:1;stroke-miterlimit:4;stroke-dasharray:none"
           id="g1522"
           transform="translate(-5.7877625,14.054536)">
          <circle
             r="6.7137752"
             cy="48.791576"
             cx="-1.3283665"
             id="circle1516"
             style="opacity:1;fill:#02a0e3;fill-opacity:1;stroke:none;stroke-width:1;stroke-linejoin:round;stroke-miterlimit:4;stroke-dasharray:none;stroke-opacity:1;paint-order:fill markers stroke" />
          <circle
             d="m 0.61214858,42.364355 a 6.7137752,6.7137752 0 0 1 4.77258872,6.33228 l -6.7131038,0.09494 z"
             sodipodi:arc-type="slice"
             sodipodi:end="6.2690436"
             sodipodi:start="5.0056075"
             sodipodi:ry="6.7137752"
             sodipodi:rx="6.7137752"
             sodipodi:cy="48.791576"
             sodipodi:cx="-1.3283665"
             sodipodi:type="arc"
             style="opacity:1;fill:#ccf0ff;fill-opacity:1;stroke:none;stroke-width:1;stroke-linejoin:round;stroke-miterlimit:4;stroke-dasharray:none;stroke-opacity:1;paint-order:fill markers stroke"
             id="circle1518" />
          <circle
             style="opacity:1;fill:none;fill-opacity:1;stroke:#000000;stroke-width:1;stroke-linejoin:round;stroke-miterlimit:4;stroke-dasharray:none;stroke-opacity:1;paint-order:fill markers stroke"
             id="circle1520"
             cx="-1.3283665"
             cy="48.791576"
             r="6.7137752" />
        </g>
        <circle
           r="6.7137752"
           cy="39.241943"
           cx="32.972973"
           id="path1475"
           style="opacity:1;fill:#00a2e8;fill-opacity:1;stroke:#000000;stroke-width:0.996949;stroke-linejoin:round;stroke-miterlimit:4;stroke-dasharray:none;stroke-opacity:1;paint-order:fill markers stroke" />
        <circle
           style="opacity:1;fill:#ccf0ff;fill-opacity:1;stroke:#000000;stroke-width:0.996949;stroke-linejoin:round;stroke-miterlimit:4;stroke-dasharray:none;stroke-opacity:1;paint-order:fill markers stroke"
           id="circle1477"
           cx="32.972973"
           cy="58.184673"
           r="6.7137752" />
        <circle
           r="6.7137752"
           cy="77.127403"
           cx="32.972973"
           id="circle1479"
           style="opacity:1;fill:#ccf0ff;fill-opacity:1;stroke:#000000;stroke-width:0.996949;stroke-linejoin:round;stroke-miterlimit:4;stroke-dasharray:none;stroke-opacity:1;paint-order:fill markers stroke" />
      </g>
    </g>
  </g>
</svg>
