<?xml version="1.0" encoding="UTF-8" standalone="no"?>
<svg
   xmlns:dc="http://purl.org/dc/elements/1.1/"
   xmlns:cc="http://creativecommons.org/ns#"
   xmlns:rdf="http://www.w3.org/1999/02/22-rdf-syntax-ns#"
   xmlns:svg="http://www.w3.org/2000/svg"
   xmlns="http://www.w3.org/2000/svg"
   xmlns:sodipodi="http://sodipodi.sourceforge.net/DTD/sodipodi-0.dtd"
   xmlns:inkscape="http://www.inkscape.org/namespaces/inkscape"
   sodipodi:docname="sMap.svg"
   inkscape:version="1.0 (4035a4fb49, 2020-05-01)"
   id="svg906"
   version="1.1"
   viewBox="0 0 67.73333 67.73333"
   height="67.73333mm"
   width="67.73333mm">
  <defs
     id="defs900">
    <filter
       height="1.1532214"
       y="-0.076610713"
       width="1.1469112"
       x="-0.073455622"
       id="filter1740"
       style="color-interpolation-filters:sRGB"
       inkscape:collect="always">
      <feGaussianBlur
         id="feGaussianBlur1742"
         stdDeviation="1.6379572"
         inkscape:collect="always" />
    </filter>
  </defs>
  <sodipodi:namedview
     inkscape:window-maximized="1"
     inkscape:window-y="-8"
     inkscape:window-x="2552"
     inkscape:window-height="1377"
     inkscape:window-width="3440"
     inkscape:snap-global="true"
     showgrid="false"
     inkscape:document-rotation="0"
     inkscape:current-layer="layer1"
     inkscape:document-units="mm"
     inkscape:cy="128.37378"
     inkscape:cx="215.19859"
     inkscape:zoom="1.6393277"
     inkscape:pageshadow="2"
     inkscape:pageopacity="0.0"
     borderopacity="1.0"
     bordercolor="#666666"
     pagecolor="#ffffff"
     id="base" />
  <metadata
     id="metadata903">
    <rdf:RDF>
      <cc:Work
         rdf:about="">
        <dc:format>image/svg+xml</dc:format>
        <dc:type
           rdf:resource="http://purl.org/dc/dcmitype/StillImage" />
        <dc:title></dc:title>
      </cc:Work>
    </rdf:RDF>
  </metadata>
  <g
     transform="translate(21.015474,-24.341669)"
     id="layer1"
     inkscape:groupmode="layer"
     inkscape:label="Livello 1">
    <g
       style="opacity:0.2;filter:url(#filter1740)"
       id="g1689"
       transform="translate(-0.07646829,1.6111606)">
      <path
         transform="matrix(0.26458333,0,0,0.26458333,-20.939006,24.318008)"
         d="m 203.7207,31.03125 a 25.374898,25.374898 0 0 0 -22.17773,13.121094 h -75.82813 l -15.884762,9.171875 v 0.267578 5.333984 l 16.855472,9.732422 h 74.85742 a 25.374898,25.374898 0 0 0 22.21875,13.123047 25.374898,25.374898 0 0 0 25.375,-25.375 25.374898,25.374898 0 0 0 -25.375,-25.375 25.374898,25.374898 0 0 0 -0.041,0 z M 89.789062,66.828125 A 25.374898,25.374898 0 0 0 67.375,80.384766 l -15.130859,8.736328 v 1.814453 3.789062 l 14.734375,8.505861 a 25.374898,25.374898 0 0 0 22.851562,14.34765 25.374898,25.374898 0 0 0 0.04102,0 25.374898,25.374898 0 0 0 1.271484,-0.0352 25.374898,25.374898 0 0 0 24.062498,-25.339845 25.374898,25.374898 0 0 0 0,-0.04102 25.374898,25.374898 0 0 0 -0.002,-0.318359 25.374898,25.374898 0 0 0 -0.002,-0.105469 25.374898,25.374898 0 0 0 -0.002,-0.03516 25.374898,25.374898 0 0 0 -0.01,-0.388672 25.374898,25.374898 0 0 0 -0.002,-0.03516 25.374898,25.374898 0 0 0 -0.0156,-0.388672 25.374898,25.374898 0 0 0 -0.002,-0.0332 25.374898,25.374898 0 0 1 0,-0.002 25.374898,25.374898 0 0 0 -0.002,-0.03516 25.374898,25.374898 0 0 0 -0.0586,-0.810546 25.374898,25.374898 0 0 0 -0.0352,-0.384766 25.374898,25.374898 0 0 0 -0.004,-0.03711 25.374898,25.374898 0 0 0 -0.043,-0.384766 25.374898,25.374898 0 0 0 -0.004,-0.03516 25.374898,25.374898 0 0 0 -0.17774,-1.222657 25.374898,25.374898 0 0 0 -0.004,-0.02344 25.374898,25.374898 0 0 0 -0.002,-0.01172 25.374898,25.374898 0 0 0 -0.0156,-0.08789 25.374898,25.374898 0 0 0 -0.0605,-0.328125 25.374898,25.374898 0 0 0 -0.0742,-0.38086 25.374898,25.374898 0 0 0 -0.008,-0.03516 25.374898,25.374898 0 0 0 -0.0801,-0.378906 25.374898,25.374898 0 0 0 -0.008,-0.03516 25.374898,25.374898 0 0 0 -0.0879,-0.378906 25.374898,25.374898 0 0 0 -0.006,-0.02148 25.374898,25.374898 0 0 0 -0.002,-0.01172 25.374898,25.374898 0 0 0 -0.0937,-0.376953 25.374898,25.374898 0 0 0 -0.01,-0.03516 25.374898,25.374898 0 0 0 -0.0996,-0.375 25.374898,25.374898 0 0 0 -0.01,-0.0332 25.374898,25.374898 0 0 0 -0.0195,-0.06836 25.374898,25.374898 0 0 0 -0.0195,-0.06836 25.374898,25.374898 0 0 0 -0.0781,-0.271484 25.374898,25.374898 0 0 0 -0.0352,-0.113282 25.374898,25.374898 0 0 0 -0.0879,-0.291015 25.374898,25.374898 0 0 0 -0.0195,-0.06445 25.374898,25.374898 0 0 0 -0.0254,-0.08008 25.374898,25.374898 0 0 0 -0.20898,-0.626953 25.374898,25.374898 0 0 0 -0.0117,-0.0332 25.374898,25.374898 0 0 0 -0.0117,-0.0332 25.374898,25.374898 0 0 0 -23.937498,-16.953125 25.374898,25.374898 0 0 0 -0.04102,0 z M 203.7207,102.625 a 25.374898,25.374898 0 0 0 -22.17968,13.12305 h -75.82618 l -15.884762,9.16992 v 0.26758 5.33593 l 16.855472,9.73047 h 74.85547 a 25.374898,25.374898 0 0 0 22.2207,13.12305 25.374898,25.374898 0 0 0 25.375,-25.375 25.374898,25.374898 0 0 0 -25.375,-25.375 25.374898,25.374898 0 0 0 -0.041,0 z M 52.244141,120.24219 a 25.374898,25.374898 0 0 0 -25.375,25.375 25.374898,25.374898 0 0 0 25.375,25.375 25.374898,25.374898 0 0 0 0.04102,0 25.374898,25.374898 0 0 0 0.423828,-0.004 25.374898,25.374898 0 0 0 24.910157,-25.37109 25.374898,25.374898 0 0 0 0,-0.041 25.374898,25.374898 0 0 0 -0.002,-0.3164 25.374898,25.374898 0 0 0 -0.002,-0.10743 25.374898,25.374898 0 0 0 0,-0.0273 25.374898,25.374898 0 0 0 -0.01172,-0.39453 25.374898,25.374898 0 0 0 -0.0078,-0.18555 25.374898,25.374898 0 0 0 -0.01172,-0.23828 25.374898,25.374898 0 0 0 -0.002,-0.0469 25.374898,25.374898 0 0 0 -0.04687,-0.69532 25.374898,25.374898 0 0 0 -0.0625,-0.66797 25.374898,25.374898 0 0 0 -0.0039,-0.041 25.374898,25.374898 0 0 0 -0.01172,-0.10352 25.374898,25.374898 0 0 0 -0.03516,-0.28515 25.374898,25.374898 0 0 0 -0.0039,-0.0312 25.374898,25.374898 0 0 0 -0.03125,-0.23633 25.374898,25.374898 0 0 0 -0.01172,-0.084 25.374898,25.374898 0 0 0 -0.01367,-0.0996 25.374898,25.374898 0 0 0 -0.03516,-0.23632 25.374898,25.374898 0 0 0 -0.0039,-0.0195 25.374898,25.374898 0 0 0 -0.0625,-0.39844 25.374898,25.374898 0 0 0 -0.01953,-0.10938 25.374898,25.374898 0 0 0 -0.01172,-0.0723 25.374898,25.374898 0 0 0 -0.01758,-0.0977 25.374898,25.374898 0 0 0 -0.06055,-0.31836 25.374898,25.374898 0 0 0 -0.04687,-0.23633 25.374898,25.374898 0 0 0 -0.02539,-0.11523 25.374898,25.374898 0 0 0 -0.01172,-0.0645 25.374898,25.374898 0 0 0 -0.05078,-0.23438 25.374898,25.374898 0 0 0 -0.04102,-0.17969 25.374898,25.374898 0 0 0 -0.01758,-0.0742 25.374898,25.374898 0 0 0 -0.07422,-0.3086 25.374898,25.374898 0 0 0 -0.0078,-0.0293 25.374898,25.374898 0 0 0 -0.140625,-0.54687 25.374898,25.374898 0 0 0 -0.07617,-0.27149 25.374898,25.374898 0 0 0 -0.06641,-0.23046 25.374898,25.374898 0 0 0 -0.04102,-0.13477 25.374898,25.374898 0 0 0 -0.01172,-0.041 25.374898,25.374898 0 0 0 -0.07031,-0.22852 25.374898,25.374898 0 0 0 -0.01172,-0.0352 25.374898,25.374898 0 0 0 -0.117187,-0.36914 25.374898,25.374898 0 0 0 -0.197266,-0.57422 25.374898,25.374898 0 0 0 -0.230469,-0.62109 25.374898,25.374898 0 0 0 -0.002,-0.004 25.374898,25.374898 0 0 0 -0.154297,-0.39062 25.374898,25.374898 0 0 0 -0.06445,-0.15625 25.374898,25.374898 0 0 0 -0.0059,-0.0137 25.374898,25.374898 0 0 0 -0.0918,-0.22071 25.374898,25.374898 0 0 0 -0.02344,-0.0527 25.374898,25.374898 0 0 0 -0.503906,-1.10352 25.374898,25.374898 0 0 0 -0.002,-0.004 25.374898,25.374898 0 0 0 -0.185547,-0.375 25.374898,25.374898 0 0 0 -0.08398,-0.16406 25.374898,25.374898 0 0 0 -0.111328,-0.2129 25.374898,25.374898 0 0 0 -0.08594,-0.1621 25.374898,25.374898 0 0 0 -0.115234,-0.21094 25.374898,25.374898 0 0 0 -0.0098,-0.0176 25.374898,25.374898 0 0 0 -0.197265,-0.35156 25.374898,25.374898 0 0 0 -0.03516,-0.0606 25.374898,25.374898 0 0 0 -0.05664,-0.0996 25.374898,25.374898 0 0 0 -0.121094,-0.20703 25.374898,25.374898 0 0 0 -0.07422,-0.12305 25.374898,25.374898 0 0 0 -0.01953,-0.0332 25.374898,25.374898 0 0 0 -0.125,-0.20508 25.374898,25.374898 0 0 0 -0.06836,-0.10742 25.374898,25.374898 0 0 0 -0.0293,-0.0488 25.374898,25.374898 0 0 0 -0.128906,-0.20312 25.374898,25.374898 0 0 0 -0.09961,-0.1543 25.374898,25.374898 0 0 0 -0.130859,-0.19922 25.374898,25.374898 0 0 0 -0.0059,-0.008 25.374898,25.374898 0 0 0 -0.230468,-0.34375 25.374898,25.374898 0 0 0 -0.04102,-0.0566 25.374898,25.374898 0 0 0 -0.06445,-0.0957 25.374898,25.374898 0 0 0 -0.138672,-0.19531 25.374898,25.374898 0 0 0 -0.101562,-0.14062 25.374898,25.374898 0 0 0 -0.0059,-0.008 25.374898,25.374898 0 0 0 -0.140625,-0.19335 25.374898,25.374898 0 0 0 -0.06836,-0.0918 25.374898,25.374898 0 0 0 -0.04102,-0.0566 25.374898,25.374898 0 0 0 -0.05859,-0.0742 25.374898,25.374898 0 0 0 -0.199218,-0.26172 25.374898,25.374898 0 0 0 -0.148438,-0.18945 25.374898,25.374898 0 0 1 0,-0.002 25.374898,25.374898 0 0 0 -0.265625,-0.32812 25.374898,25.374898 0 0 0 -0.117187,-0.14258 25.374898,25.374898 0 0 0 -0.152344,-0.18164 25.374898,25.374898 0 0 0 -0.121094,-0.14063 25.374898,25.374898 0 0 0 -0.15625,-0.18164 25.374898,25.374898 0 0 0 -0.03906,-0.0449 25.374898,25.374898 0 0 0 -0.166016,-0.18554 25.374898,25.374898 0 0 0 -0.201172,-0.22071 25.374898,25.374898 0 0 0 -0.162109,-0.17578 25.374898,25.374898 0 0 0 -0.07813,-0.082 25.374898,25.374898 0 0 0 -0.04883,-0.0527 25.374898,25.374898 0 0 0 -0.166016,-0.17188 25.374898,25.374898 0 0 0 -0.05664,-0.0566 25.374898,25.374898 0 0 0 -0.07227,-0.0762 25.374898,25.374898 0 0 0 -0.167969,-0.16992 25.374898,25.374898 0 0 0 -0.130859,-0.12891 25.374898,25.374898 0 0 0 -0.171875,-0.16797 25.374898,25.374898 0 0 0 -0.132813,-0.12695 25.374898,25.374898 0 0 0 -0.173828,-0.16406 25.374898,25.374898 0 0 0 -0.08203,-0.0762 25.374898,25.374898 0 0 0 -0.05273,-0.0488 25.374898,25.374898 0 0 0 -0.177734,-0.16211 25.374898,25.374898 0 0 0 -0.136719,-0.12305 25.374898,25.374898 0 0 0 -0.179687,-0.1582 25.374898,25.374898 0 0 0 -0.03125,-0.0273 25.374898,25.374898 0 0 0 -0.289063,-0.24804 25.374898,25.374898 0 0 0 -0.142578,-0.11914 25.374898,25.374898 0 0 0 -0.02734,-0.0234 25.374898,25.374898 0 0 0 -0.632812,-0.50586 25.374898,25.374898 0 0 0 -0.189453,-0.14649 25.374898,25.374898 0 0 0 -0.09375,-0.0703 25.374898,25.374898 0 0 0 -0.05273,-0.041 25.374898,25.374898 0 0 0 -0.191406,-0.14258 25.374898,25.374898 0 0 0 -0.121094,-0.0859 25.374898,25.374898 0 0 0 -0.0293,-0.0234 25.374898,25.374898 0 0 0 -0.193359,-0.13867 25.374898,25.374898 0 0 0 -0.128906,-0.0898 25.374898,25.374898 0 0 0 -0.02148,-0.0156 25.374898,25.374898 0 0 0 -0.197265,-0.13672 25.374898,25.374898 0 0 0 -0.152344,-0.10351 25.374898,25.374898 0 0 0 -0.199219,-0.13282 25.374898,25.374898 0 0 0 -0.154296,-0.10156 25.374898,25.374898 0 0 0 -0.04688,-0.0293 25.374898,25.374898 0 0 0 -0.310546,-0.19922 25.374898,25.374898 0 0 0 -0.203125,-0.12696 25.374898,25.374898 0 0 0 -0.09961,-0.0605 25.374898,25.374898 0 0 0 -0.05664,-0.0352 25.374898,25.374898 0 0 0 -0.06445,-0.0371 25.374898,25.374898 0 0 0 -0.300782,-0.17773 25.374898,25.374898 0 0 0 -0.207031,-0.11914 25.374898,25.374898 0 0 0 -0.01563,-0.008 25.374898,25.374898 0 0 0 -0.353516,-0.19921 25.374898,25.374898 0 0 0 -0.162109,-0.0879 25.374898,25.374898 0 0 0 -0.03516,-0.0195 25.374898,25.374898 0 0 0 -0.71875,-0.36914 25.374898,25.374898 0 0 0 -0.214844,-0.10547 25.374898,25.374898 0 0 0 -0.08398,-0.041 25.374898,25.374898 0 0 0 -0.08203,-0.0391 25.374898,25.374898 0 0 0 -0.216797,-0.10157 25.374898,25.374898 0 0 0 -0.166015,-0.0762 25.374898,25.374898 0 0 0 -0.21875,-0.0977 25.374898,25.374898 0 0 0 -0.558594,-0.24024 25.374898,25.374898 0 0 0 -0.222656,-0.0918 25.374898,25.374898 0 0 0 -0.06445,-0.0254 25.374898,25.374898 0 0 0 -0.675782,-0.25976 25.374898,25.374898 0 0 1 -0.002,0 25.374898,25.374898 0 0 0 -0.04687,-0.0176 25.374898,25.374898 0 0 0 -0.128906,-0.0469 25.374898,25.374898 0 0 0 -0.04492,-0.0156 25.374898,25.374898 0 0 0 -0.226562,-0.0801 25.374898,25.374898 0 0 0 -0.03516,-0.0117 25.374898,25.374898 0 0 0 -0.945313,-0.30664 25.374898,25.374898 0 0 0 -7.333984,-1.08398 z M 203.7207,174.21875 A 25.374898,25.374898 0 0 0 181.54297,187.3418 H 68.126953 l -15.882812,9.16992 v 0.26953 2.82227 2.51171 l 16.855468,9.73243 H 181.54297 a 25.374898,25.374898 0 0 0 22.21875,13.12109 25.374898,25.374898 0 0 0 25.375,-25.375 25.374898,25.374898 0 0 0 -25.375,-25.375 25.374898,25.374898 0 0 0 -0.041,0 z"
         style="opacity:1;fill:#000000;fill-opacity:1;stroke:#000000;stroke-width:3.768;stroke-linejoin:round;stroke-miterlimit:4;stroke-dasharray:none;stroke-opacity:1;paint-order:fill markers stroke"
         id="path1737" />
      <g
         transform="translate(0,-0.11806814)"
         id="g1647" />
      <g
         transform="translate(0,-0.21756719)"
         id="g1653" />
      <g
         transform="translate(0,-0.10587524)"
         id="g1659" />
      <g
         transform="translate(0,-0.0782677)"
         id="g1665" />
      <g
         transform="translate(4.1569107,-0.07826759)"
         id="g1673" />
      <g
         style="opacity:1;stroke-width:1;stroke-miterlimit:4;stroke-dasharray:none"
         id="g1681"
         transform="translate(-5.7877625,14.054536)" />
    </g>
    <g
       transform="translate(-0.07646829,0.02366058)"
       id="g1579">
      <path
         sodipodi:nodetypes="cc"
         id="path1514"
         d="M -7.116129,48.562553 V 77.129671"
         style="opacity:1;fill:none;fill-opacity:1;stroke:#000000;stroke-width:1.32292;stroke-linecap:round;stroke-linejoin:round;stroke-miterlimit:4;stroke-dasharray:none;stroke-opacity:1;paint-order:fill markers stroke" />
      <path
         style="opacity:1;fill:none;fill-opacity:1;stroke:#000000;stroke-width:1.32292;stroke-linecap:round;stroke-linejoin:round;stroke-miterlimit:4;stroke-dasharray:none;stroke-opacity:1;paint-order:fill markers stroke"
         d="M 2.8285114,39.089093 V 58.195047"
         id="path1512"
         sodipodi:nodetypes="cc" />
      <g
         id="g1499"
         transform="translate(0,-0.11806814)">
        <path
           sodipodi:nodetypes="ccccccc"
           id="path1481"
           d="M 33.119526,36.118232 H 7.0311218 l -4.2025773,2.426359 v 1.482459 l 4.459583,2.574741 H 33.119526 Z"
           style="opacity:1;fill:#00a2e8;fill-opacity:1;stroke:none;stroke-width:0.79375;stroke-linejoin:round;stroke-miterlimit:4;stroke-dasharray:none;stroke-opacity:1;paint-order:fill markers stroke" />
        <path
           style="opacity:1;fill:#ccf0ff;fill-opacity:1;stroke:none;stroke-width:0.79375;stroke-linejoin:round;stroke-miterlimit:4;stroke-dasharray:none;stroke-opacity:1;paint-order:fill markers stroke"
           d="M 33.119526,36.118232 H 7.0311218 l -4.2025773,2.426359 v 0.07094 l 4.459583,-2.179479 z"
           id="path1483"
           sodipodi:nodetypes="cccccc" />
      </g>
      <g
         id="g1495"
         transform="translate(0,-0.21756719)">
        <path
           style="opacity:1;fill:#00a2e8;fill-opacity:1;stroke:none;stroke-width:0.79375;stroke-linejoin:round;stroke-miterlimit:4;stroke-dasharray:none;stroke-opacity:1;paint-order:fill markers stroke"
           d="M 33.119526,55.160461 H 7.0311218 L 2.8285445,57.58682 v 1.482459 l 4.459583,2.574741 H 33.119526 Z"
           id="path1485"
           sodipodi:nodetypes="ccccccc" />
        <path
           sodipodi:nodetypes="ccccccc"
           id="path1487"
           d="M 33.119526,55.160461 H 7.0311218 L 2.8285445,57.58682 v 0.07094 l 4.459583,-1.611531 25.8313985,5.597791 z"
           style="opacity:1;fill:#ccf0ff;fill-opacity:1;stroke:none;stroke-width:0.79375;stroke-linejoin:round;stroke-miterlimit:4;stroke-dasharray:none;stroke-opacity:1;paint-order:fill markers stroke" />
      </g>
      <g
         id="g1526"
         transform="translate(0,-0.10587524)">
        <path
           sodipodi:nodetypes="ccccccc"
           id="path1489"
           d="M 33.119526,73.991499 H -2.9135517 l -4.2025773,2.426359 v 1.482459 l 4.459583,2.574741 h 35.776072 z"
           style="opacity:1;fill:#00a2e8;fill-opacity:1;stroke:none;stroke-width:0.79375;stroke-linejoin:round;stroke-miterlimit:4;stroke-dasharray:none;stroke-opacity:1;paint-order:fill markers stroke" />
        <path
           style="opacity:1;fill:#ccf0ff;fill-opacity:1;stroke:none;stroke-width:0.79375;stroke-linejoin:round;stroke-miterlimit:4;stroke-dasharray:none;stroke-opacity:1;paint-order:fill markers stroke"
           d="M 33.119526,73.991499 H -2.9135517 l -4.2025773,2.426359 v 0.07094 l 4.459583,-0.713838 35.776072,4.700098 z"
           id="path1491"
           sodipodi:nodetypes="ccccccc" />
      </g>
      <g
         id="g1552"
         transform="translate(0,-0.0782677)">
        <path
           style="opacity:1;fill:#00a2e8;fill-opacity:1;stroke:none;stroke-width:0.79375;stroke-linejoin:round;stroke-miterlimit:4;stroke-dasharray:none;stroke-opacity:1;paint-order:fill markers stroke"
           d="m 2.8285114,45.549797 h -5.7420635 l -4.202577,2.426359 v 1.482459 l 4.459583,2.574741 h 5.4850575 z"
           id="path1528"
           sodipodi:nodetypes="ccccccc" />
        <path
           sodipodi:nodetypes="ccccccc"
           id="path1530"
           d="m 2.8285114,45.549797 h -5.7420635 l -4.202577,2.426359 v 0.480133 l 4.459583,-1.526616 h 5.4850575 z"
           style="opacity:1;fill:#ccf0ff;fill-opacity:1;stroke:none;stroke-width:0.79375;stroke-linejoin:round;stroke-miterlimit:4;stroke-dasharray:none;stroke-opacity:1;paint-order:fill markers stroke" />
      </g>
      <g
         id="g1510"
         transform="translate(4.1569107,-0.07826759)">
        <circle
           r="6.7137752"
           cy="48.791576"
           cx="-1.3283665"
           id="circle1503"
           style="opacity:1;fill:#02a0e3;fill-opacity:1;stroke:none;stroke-width:0.996949;stroke-linejoin:round;stroke-miterlimit:4;stroke-dasharray:none;stroke-opacity:1;paint-order:fill markers stroke" />
        <circle
           d="m 4.9700607,46.466799 a 6.7137752,6.7137752 0 0 1 0.4146766,2.229836 l -6.7131038,0.09494 z"
           sodipodi:arc-type="slice"
           sodipodi:end="6.2690436"
           sodipodi:start="5.9295933"
           sodipodi:ry="6.7137752"
           sodipodi:rx="6.7137752"
           sodipodi:cy="48.791576"
           sodipodi:cx="-1.3283665"
           sodipodi:type="arc"
           style="opacity:1;fill:#ccf0ff;fill-opacity:1;stroke:none;stroke-width:0.996949;stroke-linejoin:round;stroke-miterlimit:4;stroke-dasharray:none;stroke-opacity:1;paint-order:fill markers stroke"
           id="circle1505" />
        <circle
           style="opacity:1;fill:none;fill-opacity:1;stroke:#000000;stroke-width:0.996949;stroke-linejoin:round;stroke-miterlimit:4;stroke-dasharray:none;stroke-opacity:1;paint-order:fill markers stroke"
           id="circle1501"
           cx="-1.3283665"
           cy="48.791576"
           r="6.7137752" />
      </g>
      <g
         transform="translate(-5.7877625,14.054536)"
         id="g1522"
         style="opacity:1;stroke-width:1;stroke-miterlimit:4;stroke-dasharray:none">
        <circle
           style="opacity:1;fill:#02a0e3;fill-opacity:1;stroke:none;stroke-width:1;stroke-linejoin:round;stroke-miterlimit:4;stroke-dasharray:none;stroke-opacity:1;paint-order:fill markers stroke"
           id="circle1516"
           cx="-1.3283665"
           cy="48.791576"
           r="6.7137752" />
        <circle
           id="circle1518"
           style="opacity:1;fill:#ccf0ff;fill-opacity:1;stroke:none;stroke-width:1;stroke-linejoin:round;stroke-miterlimit:4;stroke-dasharray:none;stroke-opacity:1;paint-order:fill markers stroke"
           sodipodi:type="arc"
           sodipodi:cx="-1.3283665"
           sodipodi:cy="48.791576"
           sodipodi:rx="6.7137752"
           sodipodi:ry="6.7137752"
           sodipodi:start="5.0056075"
           sodipodi:end="6.2690436"
           sodipodi:arc-type="slice"
           d="m 0.61214858,42.364355 a 6.7137752,6.7137752 0 0 1 4.77258872,6.33228 l -6.7131038,0.09494 z" />
        <circle
           r="6.7137752"
           cy="48.791576"
           cx="-1.3283665"
           id="circle1520"
           style="opacity:1;fill:none;fill-opacity:1;stroke:#000000;stroke-width:1;stroke-linejoin:round;stroke-miterlimit:4;stroke-dasharray:none;stroke-opacity:1;paint-order:fill markers stroke" />
      </g>
      <circle
         style="opacity:1;fill:#00a2e8;fill-opacity:1;stroke:#000000;stroke-width:0.996949;stroke-linejoin:round;stroke-miterlimit:4;stroke-dasharray:none;stroke-opacity:1;paint-order:fill markers stroke"
         id="path1475"
         cx="32.972973"
         cy="39.241943"
         r="6.7137752" />
      <circle
         r="6.7137752"
         cy="58.184673"
         cx="32.972973"
         id="circle1477"
         style="opacity:1;fill:#ccf0ff;fill-opacity:1;stroke:#000000;stroke-width:0.996949;stroke-linejoin:round;stroke-miterlimit:4;stroke-dasharray:none;stroke-opacity:1;paint-order:fill markers stroke" />
      <circle
         style="opacity:1;fill:#ccf0ff;fill-opacity:1;stroke:#000000;stroke-width:0.996949;stroke-linejoin:round;stroke-miterlimit:4;stroke-dasharray:none;stroke-opacity:1;paint-order:fill markers stroke"
         id="circle1479"
         cx="32.972973"
         cy="77.127403"
         r="6.7137752" />
    </g>
  </g>
</svg>
